<?xml version="1.0" encoding="utf-8"?>
<!-- Generator: Adobe Illustrator 14.0.0, SVG Export Plug-In . SVG Version: 6.00 Build 43363)  -->
<!DOCTYPE svg PUBLIC "-//W3C//DTD SVG 1.1//EN" "http://www.w3.org/Graphics/SVG/1.1/DTD/svg11.dtd">
<svg version="1.1" id="Layer_1" xmlns="http://www.w3.org/2000/svg" xmlns:xlink="http://www.w3.org/1999/xlink" x="0px" y="0px"
	 width="162.679px" height="127.009px" viewBox="0 0 162.679 127.009" enable-background="new 0 0 162.679 127.009"
	 xml:space="preserve">
<circle cx="145.783" cy="-116.088" r="63.85"/>
<circle fill="none" stroke="#FFFFFF" stroke-width="2" cx="146.126" cy="-116.088" r="56.706"/>
<path fill="none" stroke="#FFFFFF" d="M156.12-116.084c0,22.762-4.629,41.219-10.34,41.219c-5.705,0-10.338-18.457-10.338-41.219
	c0-22.766,4.633-41.219,10.338-41.219C151.491-157.303,156.12-138.85,156.12-116.084z"/>
<path fill="none" stroke="#00AEEF" d="M157.588-107.475c-15.504,21.267-33.365,34.656-39.883,29.896
	c-6.523-4.751,0.759-25.852,16.268-47.118c15.504-21.263,33.365-34.656,39.883-29.896
	C180.378-149.841,173.097-128.741,157.588-107.475z"/>
<path fill="none" stroke="#FFFFFF" d="M143.69-104.614c-23.547-1.894-42.216-8.574-41.702-14.907
	c0.508-6.34,20.01-9.934,43.555-8.039c23.541,1.9,42.215,8.577,41.705,14.917C186.738-106.311,167.235-102.714,143.69-104.614z"/>
<path fill="none" stroke="#FFFFFF" d="M138.238-108.989c-19.872-21.123-32.607-41.426-28.44-45.342
	c4.167-3.922,23.651,10.029,43.525,31.148c19.873,21.126,32.612,41.423,28.446,45.349
	C177.603-73.922,158.111-87.863,138.238-108.989z"/>
<circle cx="78.174" cy="63.503" r="52.325"/>
<circle fill="none" stroke="#FFFFFF" stroke-width="2" cx="78.456" cy="63.503" r="46.47"/>
<path fill="none" stroke="#FFFFFF" d="M86.645,63.506c0,18.653-3.793,33.778-8.473,33.778c-4.675,0-8.472-15.125-8.472-33.778
	c0-18.656,3.796-33.779,8.472-33.779C82.852,29.728,86.645,44.85,86.645,63.506z"/>
<path fill="none" stroke="#00AEEF" d="M87.849,70.562c-12.705,17.427-27.342,28.4-32.683,24.499
	c-5.346-3.893,0.621-21.185,13.331-38.612c12.705-17.425,27.342-28.4,32.683-24.499C106.524,35.842,100.557,53.134,87.849,70.562z"
	/>
<path fill="none" stroke="#FFFFFF" d="M76.459,72.905c-19.296-1.552-34.596-7.026-34.175-12.216
	c0.416-5.195,16.397-8.14,35.692-6.588c19.292,1.558,34.595,7.029,34.177,12.225C111.736,71.515,95.754,74.463,76.459,72.905z"/>
<path fill="none" stroke="#FFFFFF" d="M71.991,69.32C55.707,52.01,45.269,35.372,48.685,32.163
	c3.414-3.214,19.381,8.218,35.668,25.526c16.286,17.312,26.725,33.945,23.311,37.163C104.25,98.058,88.276,86.632,71.991,69.32z"/>
<path d="M-6.912-163.643h5.769v37.944H8.29v4.882H-6.912V-163.643z"/>
<path fill="#00AEEF" d="M28.539-134.934c0,9.707-3.005,14.561-9.015,14.561c-6.011,0-9.017-4.927-9.017-14.784
	c0-9.892,2.996-14.84,8.988-14.84c1.553,0,2.899,0.296,4.036,0.89c1.137,0.59,2.076,1.505,2.815,2.746
	c0.74,1.24,1.29,2.8,1.65,4.688S28.539-137.542,28.539-134.934z M23.046-135.074c0-3.772-0.25-6.396-0.75-7.876
	c-0.499-1.499-1.385-2.248-2.663-2.248c-1.258,0-2.154,0.74-2.689,2.219c-0.501,1.479-0.75,4.059-0.75,7.74
	c0,3.68,0.249,6.25,0.75,7.71c0.536,1.479,1.432,2.22,2.689,2.22c1.258,0,2.135-0.73,2.636-2.19
	C22.786-128.868,23.046-131.394,23.046-135.074z"/>
<path d="M30.369-149.526h5.686l2.081,9.098c0.426,1.85,0.786,3.808,1.083,5.864c0.295,2.066,0.536,4.317,0.721,6.757
	c0.11-0.574,0.166-0.905,0.166-0.998l0.638-4.27c0.241-1.63,0.712-4.079,1.416-7.354l1.914-9.098h5.131l-7.489,28.709h-3.578
	L30.369-149.526z"/>
<path d="M69.036-134.934c0,9.707-3.006,14.561-9.015,14.561s-9.015-4.927-9.015-14.784c0-9.892,2.996-14.84,8.988-14.84
	c1.553,0,2.898,0.296,4.035,0.89c1.137,0.59,2.076,1.505,2.814,2.746c0.739,1.24,1.291,2.8,1.651,4.688
	S69.036-137.542,69.036-134.934z M63.542-135.074c0-3.772-0.248-6.396-0.749-7.876c-0.498-1.499-1.386-2.248-2.661-2.248
	c-1.258,0-2.154,0.74-2.691,2.219c-0.499,1.479-0.748,4.059-0.748,7.74c0,3.68,0.249,6.25,0.748,7.71
	c0.537,1.479,1.434,2.22,2.691,2.22s2.135-0.73,2.636-2.19C63.285-128.868,63.542-131.394,63.542-135.074z"/>
<path d="M-6.912-114.299h5.247v34.513h8.577v4.439H-6.912V-114.299z"/>
<path d="M17.812-114.299h4.085l8.352,38.952H25.05l-1.462-7.593H15.87l-1.489,7.593H9.335L17.812-114.299z M22.831-87.002
	l-1.161-6.206c-0.773-4.222-1.403-8.728-1.891-13.521c-0.236,2.338-0.539,4.704-0.909,7.102c-0.37,2.396-0.807,4.939-1.311,7.631
	l-0.96,4.994H22.831z"/>
<path d="M33.325-114.299h7.114c5.568,0,8.35,3.457,8.35,10.37c0,2.641-0.362,4.599-1.086,5.877
	c-0.722,1.279-1.999,2.245-3.833,2.902c2.102,0.842,3.54,1.916,4.314,3.227c0.79,1.298,1.185,3.247,1.185,5.855
	c0,7.146-3.062,10.721-9.183,10.721h-6.862V-114.299z M38.246-97.143c2.044,0,3.463-0.472,4.257-1.413
	c0.794-0.991,1.191-2.732,1.191-5.223c0-4.203-1.521-6.308-4.562-6.308h-0.405h-0.229c-0.136,0-0.22,0.01-0.252,0.025V-97.143z
	 M38.246-79.837c2.162,0,3.654-0.462,4.483-1.387s1.242-2.6,1.242-5.022c0-2.487-0.431-4.229-1.293-5.221
	c-0.845-1.011-2.323-1.515-4.433-1.515V-79.837z"/>
<path d="M67.583-113.488v5.118c-1.598-1.142-3.035-1.716-4.312-1.716c-1.379,0-2.506,0.487-3.382,1.464
	c-0.874,0.925-1.311,2.162-1.311,3.708c0,1.362,0.311,2.532,0.935,3.508c0.319,0.52,0.845,1.192,1.575,2.019
	c0.731,0.823,1.677,1.814,2.838,2.976c2.137,2.171,3.591,4.047,4.365,5.625c0.772,1.53,1.159,3.405,1.159,5.628
	c0,3.011-0.85,5.491-2.548,7.439c-1.698,1.901-3.876,2.852-6.532,2.852c-2.238,0-4.147-0.612-5.727-1.84v-5.198
	c1.866,1.361,3.565,2.044,5.096,2.044c1.429,0,2.548-0.475,3.355-1.429c0.807-0.947,1.212-2.238,1.212-3.868
	c0-1.412-0.312-2.685-0.935-3.811c-0.319-0.539-0.766-1.154-1.336-1.855c-0.572-0.695-1.288-1.474-2.146-2.331
	c-1.326-1.314-2.43-2.472-3.304-3.482c-0.874-1.008-1.521-1.891-1.942-2.65c-0.807-1.479-1.211-3.345-1.211-5.6
	c0-3.042,0.791-5.456,2.372-7.238c1.598-1.802,3.741-2.701,6.432-2.701C64.102-114.828,65.885-114.382,67.583-113.488z"/>
<path d="M274.103-107.105v-39.406h5.215v34.754h19.406v4.651H274.103z"/>
<path d="M302.514-121.379c0-5.287,1.47-9.202,4.409-11.747c2.455-2.114,5.446-3.171,8.977-3.171c3.925,0,7.133,1.285,9.623,3.856
	c2.49,2.572,3.736,6.124,3.736,10.658c0,3.673-0.551,6.562-1.652,8.669c-1.103,2.105-2.707,3.74-4.812,4.905
	c-2.105,1.164-4.404,1.747-6.895,1.747c-3.996,0-7.227-1.281-9.689-3.844C303.746-112.867,302.514-116.559,302.514-121.379z
	 M307.486-121.379c0,3.655,0.798,6.393,2.393,8.211c1.595,1.819,3.602,2.729,6.021,2.729c2.402,0,4.399-0.914,5.994-2.741
	c1.596-1.828,2.393-4.615,2.393-8.36c0-3.53-0.802-6.204-2.405-8.022c-1.604-1.819-3.599-2.729-5.981-2.729
	c-2.419,0-4.426,0.905-6.021,2.715C308.284-127.768,307.486-125.034,307.486-121.379z"/>
<path fill="#00AEEF" d="M349.478-130.825c-1.643,4.507-2.922,8.365-3.839,11.573c-1.185-4.24-2.483-8.327-3.896-12.261l-2.904-8.101
	l-11.607-3.531l13.709,36.039h9.625l13.638-36.026l-11.521,3.504L349.478-130.825z"/>
<polygon fill="#00AEEF" points="334.378,-166.003 323.493,-166.003 332.93,-141.198 344.537,-137.667 "/>
<polygon fill="#00AEEF" points="357.626,-165.997 347.311,-137.674 358.831,-141.178 368.225,-165.997 "/>
<path d="M360.226-121.379c0-5.287,1.469-9.202,4.407-11.747c2.455-2.114,5.447-3.171,8.978-3.171c3.925,0,7.133,1.285,9.623,3.856
	c2.49,2.572,3.736,6.124,3.736,10.658c0,3.673-0.551,6.562-1.652,8.669c-1.103,2.105-2.707,3.74-4.812,4.905
	c-2.105,1.164-4.403,1.747-6.895,1.747c-3.996,0-7.227-1.281-9.689-3.844C361.456-112.867,360.226-116.559,360.226-121.379z
	 M365.197-121.379c0,3.655,0.798,6.393,2.393,8.211c1.595,1.819,3.602,2.729,6.021,2.729c2.402,0,4.399-0.914,5.994-2.741
	c1.596-1.828,2.393-4.615,2.393-8.36c0-3.53-0.803-6.204-2.406-8.022c-1.604-1.819-3.597-2.729-5.98-2.729
	c-2.419,0-4.426,0.905-6.021,2.715C365.995-127.768,365.197-125.034,365.197-121.379z"/>
<path d="M274.479-64.226v-33.563h4.441v29.603h16.53v3.961H274.479z"/>
<path d="M297.054-64.226l12.89-33.563h4.784l13.737,33.563h-5.06l-3.915-10.165h-14.034l-3.686,10.165H297.054z M306.737-78.008
	h11.379l-3.502-9.295c-1.068-2.824-1.863-5.144-2.382-6.96c-0.427,2.152-1.03,4.289-1.809,6.41L306.737-78.008z"/>
<path d="M331.83-64.226v-33.563h12.592c2.563,0,4.62,0.341,6.17,1.02c1.549,0.679,2.763,1.725,3.64,3.136
	c0.879,1.412,1.316,2.889,1.316,4.431c0,1.435-0.389,2.785-1.167,4.052c-0.778,1.268-1.954,2.29-3.526,3.068
	c2.03,0.595,3.592,1.61,4.683,3.045s1.637,3.129,1.637,5.082c0,1.572-0.332,3.034-0.995,4.385c-0.664,1.351-1.485,2.393-2.462,3.125
	s-2.202,1.286-3.675,1.659c-1.473,0.374-3.277,0.562-5.414,0.562H331.83z M336.271-83.686h7.257c1.97,0,3.381-0.129,4.236-0.39
	c1.129-0.335,1.98-0.893,2.553-1.671s0.858-1.755,0.858-2.931c0-1.113-0.267-2.095-0.802-2.941c-0.534-0.848-1.297-1.428-2.289-1.74
	s-2.693-0.47-5.105-0.47h-6.708V-83.686z M336.271-68.187h8.356c1.435,0,2.441-0.054,3.021-0.16
	c1.023-0.184,1.878-0.488,2.564-0.916c0.688-0.427,1.252-1.049,1.694-1.865c0.442-0.817,0.664-1.76,0.664-2.828
	c0-1.251-0.321-2.339-0.962-3.262c-0.641-0.924-1.53-1.572-2.667-1.946c-1.138-0.374-2.774-0.562-4.911-0.562h-7.761V-68.187z"/>
<path d="M361.776-75.009l4.189-0.366c0.197,1.679,0.66,3.057,1.385,4.132c0.725,1.076,1.851,1.946,3.377,2.61
	c1.525,0.664,3.242,0.996,5.15,0.996c1.695,0,3.19-0.252,4.488-0.756c1.297-0.504,2.262-1.194,2.896-2.072
	c0.634-0.877,0.95-1.835,0.95-2.873c0-1.053-0.306-1.973-0.916-2.759s-1.617-1.445-3.021-1.98c-0.9-0.351-2.893-0.896-5.976-1.637
	c-3.083-0.74-5.243-1.438-6.479-2.095c-1.602-0.839-2.797-1.88-3.582-3.125c-0.787-1.244-1.18-2.636-1.18-4.178
	c0-1.694,0.48-3.277,1.442-4.751c0.962-1.473,2.366-2.59,4.212-3.354c1.848-0.764,3.9-1.146,6.159-1.146
	c2.487,0,4.683,0.401,6.582,1.202c1.9,0.802,3.362,1.98,4.384,3.537c1.023,1.557,1.572,3.32,1.648,5.289l-4.258,0.32
	c-0.229-2.121-1.004-3.724-2.324-4.808s-3.27-1.626-5.85-1.626c-2.686,0-4.644,0.492-5.871,1.477
	c-1.229,0.984-1.844,2.172-1.844,3.561c0,1.206,0.436,2.197,1.305,2.977c0.855,0.778,3.088,1.576,6.697,2.392
	c3.609,0.817,6.086,1.531,7.429,2.141c1.954,0.901,3.396,2.042,4.327,3.423c0.932,1.382,1.396,2.973,1.396,4.773
	c0,1.786-0.512,3.469-1.533,5.049c-1.023,1.579-2.492,2.808-4.408,3.686c-1.915,0.878-4.071,1.316-6.467,1.316
	c-3.037,0-5.583-0.442-7.636-1.328c-2.053-0.885-3.663-2.217-4.831-3.995C362.451-70.755,361.837-72.766,361.776-75.009z"/>
<path d="M411.286-142.564h8.404v20.499h13.115v6.697h-21.52V-142.564z"/>
<path d="M434.919-128.948c0-4.44,1.236-7.896,3.711-10.369c2.475-2.474,5.918-3.71,10.332-3.71c4.527,0,8.014,1.215,10.463,3.645
	c2.449,2.43,3.674,5.834,3.674,10.212c0,3.178-0.535,5.785-1.605,7.819c-1.068,2.035-2.615,3.617-4.637,4.749
	c-2.021,1.131-4.543,1.697-7.561,1.697c-3.066,0-5.604-0.489-7.615-1.466c-2.008-0.977-3.637-2.523-4.887-4.637
	C435.544-123.123,434.919-125.77,434.919-128.948z M443.323-128.911c0,2.745,0.512,4.717,1.531,5.917s2.408,1.799,4.164,1.799
	c1.805,0,3.203-0.587,4.191-1.762c0.99-1.175,1.484-3.283,1.484-6.326c0-2.56-0.516-4.43-1.549-5.611s-2.434-1.772-4.201-1.772
	c-1.693,0-3.055,0.6-4.08,1.8C443.837-133.667,443.323-131.682,443.323-128.911z"/>
<path d="M-316.354-34.359h11.099l7.733,24.727l7.634-24.727h10.776L-291.87,0h-11.508L-316.354-34.359z"/>
<path d="M496.749-128.948c0-4.44,1.236-7.896,3.711-10.369c2.473-2.474,5.918-3.71,10.332-3.71c4.525,0,8.014,1.215,10.463,3.645
	c2.447,2.43,3.672,5.834,3.672,10.212c0,3.178-0.533,5.785-1.604,7.819s-2.617,3.617-4.637,4.749
	c-2.023,1.131-4.543,1.697-7.562,1.697c-3.066,0-5.604-0.489-7.613-1.466c-2.01-0.977-3.639-2.523-4.889-4.637
	C497.374-123.123,496.749-125.77,496.749-128.948z M505.151-128.911c0,2.745,0.512,4.717,1.531,5.917s2.408,1.799,4.166,1.799
	c1.805,0,3.201-0.587,4.191-1.762c0.988-1.175,1.484-3.283,1.484-6.326c0-2.56-0.516-4.43-1.551-5.611
	c-1.031-1.181-2.432-1.772-4.199-1.772c-1.695,0-3.055,0.6-4.082,1.8C505.665-133.667,505.151-131.682,505.151-128.911z"/>
<path d="M411.286-111.101h8.512v20.761h13.283v6.781h-21.795V-111.101z"/>
<path d="M453.884-88.104h-9.662l-1.342,4.546h-8.689l10.352-27.542h9.283l10.35,27.542h-8.912L453.884-88.104z M452.118-94.06
	l-3.039-9.901l-3.008,9.901H452.118z"/>
<path d="M466.899-111.101h15.932c2.654,0,4.693,0.658,6.115,1.973c1.422,1.315,2.133,2.944,2.133,4.885
	c0,1.628-0.506,3.026-1.521,4.19c-0.678,0.775-1.668,1.39-2.969,1.841c1.979,0.475,3.436,1.293,4.367,2.451
	c0.936,1.16,1.4,2.615,1.4,4.369c0,1.428-0.332,2.712-0.994,3.853c-0.666,1.14-1.574,2.042-2.727,2.704
	c-0.713,0.415-1.791,0.714-3.23,0.904c-1.916,0.249-3.188,0.374-3.814,0.374h-14.691V-111.101z M475.485-100.296h3.701
	c1.328,0,2.25-0.23,2.771-0.687c0.52-0.457,0.779-1.118,0.779-1.982c0-0.801-0.26-1.429-0.779-1.88
	c-0.521-0.451-1.426-0.677-2.717-0.677h-3.756V-100.296z M475.485-89.474h4.34c1.465,0,2.498-0.262,3.1-0.78
	c0.602-0.52,0.902-1.218,0.902-2.095c0-0.813-0.299-1.469-0.893-1.963c-0.594-0.495-1.639-0.743-3.129-0.743h-4.32V-89.474z"/>
<path d="M495.325-92.669l8.098-0.506c0.176,1.315,0.531,2.316,1.07,3.005c0.877,1.115,2.129,1.672,3.758,1.672
	c1.215,0,2.15-0.284,2.809-0.854s0.986-1.231,0.986-1.983c0-0.712-0.312-1.352-0.939-1.916c-0.625-0.563-2.078-1.096-4.357-1.596
	c-3.734-0.839-6.396-1.954-7.986-3.344c-1.602-1.391-2.404-3.163-2.404-5.317c0-1.417,0.41-2.752,1.23-4.012
	s2.055-2.249,3.701-2.969c1.646-0.721,3.904-1.081,6.771-1.081c3.521,0,6.205,0.655,8.053,1.965c1.848,1.307,2.945,3.39,3.297,6.246
	l-8.023,0.471c-0.213-1.241-0.66-2.142-1.342-2.706c-0.684-0.564-1.625-0.845-2.828-0.845c-0.99,0-1.734,0.21-2.234,0.63
	c-0.502,0.418-0.754,0.93-0.754,1.531c0,0.438,0.207,0.832,0.621,1.183c0.4,0.363,1.352,0.7,2.855,1.016
	c3.721,0.801,6.385,1.612,7.994,2.431c1.609,0.821,2.781,1.839,3.514,3.053c0.732,1.215,1.1,2.574,1.1,4.077
	c0,1.766-0.49,3.395-1.467,4.885c-0.977,1.49-2.342,2.62-4.096,3.392c-1.752,0.769-3.965,1.154-6.633,1.154
	c-4.684,0-7.928-0.902-9.73-2.704C496.583-87.596,495.562-89.889,495.325-92.669z"/>
<path fill="#00AEEF" d="M484.792-144.042c-2.016,5.536-3.588,10.276-4.715,14.216c-1.457-5.208-3.051-10.229-4.785-15.061
	l-3.568-9.95l-14.258-4.338l16.84,44.27h11.824l16.752-44.254l-14.152,4.304L484.792-144.042z"/>
<polygon fill="#00AEEF" points="466.243,-187.255 452.874,-187.255 464.466,-156.784 478.724,-152.447 "/>
<polygon fill="#00AEEF" points="494.802,-187.247 482.13,-152.455 496.282,-156.76 507.821,-187.247 "/>
<path d="M381.805,185.621c0.036,0.005,0.06,0.013,0.094,0.018C381.89,185.628,381.862,185.621,381.805,185.621z"/>
<path fill="#FFFFFF" d="M81.573,61.357c-0.143,0-0.442-0.062-0.897-0.187c-0.456-0.125-0.805-0.189-1.05-0.189
	c-0.512,0-0.938,0.145-1.28,0.431c-0.343,0.286-0.519,0.625-0.529,1.012c-0.01,0.463,0.225,0.855,0.706,1.18
	c-0.104-0.148-0.148-0.325-0.139-0.528c0.011-0.194,0.108-0.346,0.291-0.456c0.154-0.094,0.329-0.141,0.521-0.141
	c0.235,0,0.461,0.03,0.675,0.091c0.215,0.058,0.423,0.117,0.628,0.172c-0.01,0.398-0.206,0.754-0.583,1.068
	c-0.417,0.361-0.941,0.541-1.564,0.541c-0.551,0-1.001-0.18-1.347-0.541c-0.38-0.388-0.559-0.923-0.539-1.608
	c0.031-0.989,0.302-1.806,0.813-2.454c0.899,0.277,1.717,0.416,2.454,0.416c0.714,0,1.299-0.179,1.755-0.535
	c0.454-0.354,0.666-0.792,0.635-1.31c-0.029-0.461-0.239-0.819-0.627-1.068c-0.337-0.212-0.752-0.319-1.241-0.319
	c-1.206,0-2.385,0.573-3.543,1.72c-1.011-0.341-1.828-0.513-2.452-0.513c-0.766,0-1.425,0.199-1.977,0.595
	c-0.603,0.436-0.909,1-0.92,1.693c-0.01,0.602,0.164,1.104,0.525,1.511c0.359,0.409,0.816,0.632,1.374,0.681
	c0.567,0.044,1.063-0.118,1.488-0.487c0,0.175,0,0.291,0,0.346c-0.03,1.303,0.318,2.303,1.043,2.996
	c0.644,0.61,1.487,0.915,2.528,0.915c0.717,0,1.289-0.12,1.718-0.36c-0.031,0.905-0.343,1.66-0.935,2.26
	c-0.47,0.48-0.904,0.722-1.303,0.722c-0.287,0-0.524-0.074-0.713-0.222c-0.189-0.148-0.284-0.333-0.284-0.556
	c-0.009-0.499,0.221-0.748,0.693-0.748c0.329,0,0.625,0.153,0.886,0.457c-0.254-0.924-0.78-1.387-1.582-1.387
	c-0.659,0-1.196,0.194-1.612,0.582c-0.447,0.417-0.659,0.958-0.639,1.625c0.021,0.674,0.307,1.207,0.858,1.594
	c0.511,0.369,1.17,0.555,1.978,0.555c1.737,0,2.902-1.197,3.495-3.592c0.112-0.481,0.225-0.956,0.336-1.428
	c0.195-0.545,0.496-0.817,0.904-0.817c0.236,0,0.353,0.114,0.353,0.345c0,0.224-0.056,0.385-0.167,0.486
	c0.47-0.333,0.709-0.721,0.72-1.165c0-0.221-0.061-0.417-0.185-0.584c-0.154-0.185-0.356-0.277-0.613-0.277
	c-0.254,0-0.49,0.121-0.706,0.361c0.389-1.44,0.907-2.55,1.549-3.326C82.716,61.21,82.217,61.357,81.573,61.357z M78.921,58.39
	c0.254-0.112,0.444-0.167,0.566-0.167c0.472,0,0.7,0.152,0.69,0.458c-0.01,0.379-0.326,0.569-0.95,0.569
	c-0.418,0-0.869-0.078-1.348-0.236C78.195,58.746,78.543,58.538,78.921,58.39z M75.181,60.747c-0.092-0.25-0.271-0.458-0.536-0.624
	c-0.113-0.066-0.241-0.12-0.384-0.167c0.237,0.268,0.347,0.49,0.338,0.666c-0.009,0.341-0.205,0.513-0.584,0.513
	c-0.244,0-0.446-0.072-0.604-0.214c-0.159-0.145-0.233-0.336-0.223-0.575c0.01-0.289,0.14-0.533,0.385-0.737
	c0.285-0.23,0.688-0.346,1.21-0.346c0.327,0,0.761,0.056,1.303,0.168C75.676,59.928,75.375,60.368,75.181,60.747z"/>
</svg>
